<svg width="67.553" xmlns="http://www.w3.org/2000/svg" height="208.072" viewBox="-3.776 -1.036 67.553 208.072" fill="none"><g style="fill: rgb(0, 0, 0);"><path d="M42.563 200.374c-.849-1.632-1.337-3.488-2.045-5.18-3.356-8.025-7.197-17.918-3.464-26.283.593-1.329 1.528-2.827 3.119-3.42.858-.319 1.68-.282 2.552.013.189.065.423.207.623.201.559 1.212.735 1.766.101 3.025-.908 1.803-2.136 3.15-2.49 5.167-1.164 6.647 3.126 16.196 5.71 22.5.849 2.073 1.92 4.222 2.398 6.383.215.977.401 2.652-.61 3.336a3.217 3.217 0 0 1-.805.387.936.936 0 0 1-.354.022 1.69 1.69 0 0 1-.076.025c-.552.148-1.037.125-1.559-.098a1 1 0 0 1-.123.041 2.465 2.465 0 0 1-.3.068c-.814.11-1.923-.04-2.757-.071l-6.632-.244-25.416-.938-9.287-.344c-1.453-.054-3.032-.003-4.463-.189a1.145 1.145 0 0 1-.453-.17l.19-5.171.042-1.126c.476-.453.821-.977 1.417-1.334 2.319-1.386 8.139-1.871 11.112-1.989 4.818-.19 9.772.041 14.527.813 4.148.674 9.159 1.963 13.289 2.944.931.221 5.388 1.634 5.754 1.632Zm-46.141-.94-.19 5.171c.137.084.285.148.453.17 1.431.186 3.01.135 4.463.189l9.287.344 25.416.938 6.632.244c.834.031 1.943.181 2.757.071a2.465 2.465 0 0 0 .423-.109c-1.292-.002-5.168-1.855-6.73-2.369-8.812-2.907-23.445-6.224-32.756-4.635-2.333.396-3.574 1.225-5.665 1.827-.819.238-1.678.285-2.475-.056-.889-.383-1.311-1.004-1.615-1.785Z" style="fill: rgb(255, 207, 40); fill-opacity: 1;" class="fills"/><path d="m39.715.288 5.056.187 19.005.701-2.363 64.084-.119 3.227c-.11.295-.156.626-.232.93-.652 2.62-2.001 4.885-4.688 6.35-3.136 1.709-6.922 1.817-10.484 1.124-6.534-1.269-14.812-6.447-19.184-10.777-1.653-1.637-3.032-3.54-4.393-5.361-.537.768-1.287 1.464-1.86 2.227-1.685 2.243-2.858 4.818-3.641 7.397-3.353 11.05-.636 26.881 4.958 37.221.479.884.919 1.863 1.489 2.702.868-.239 1.73-.767 2.543-1.13.658-.294 1.359-.514 2.045-.755 5.189-1.817 11.658-3.246 17.115-1.267 2.806 1.018 4.807 3.002 5.959 5.389 1.182 2.451 1.562 4.793.361 7.27-1.217 2.511-3.612 4.413-6.539 5.418-3.823 1.312-8.332 1.021-12.103-.369-3.665-1.349-6.856-3.644-9.428-6.24-.557-.562-1.231-1.191-1.555-1.872-.421.672-1.508 1.355-2.153 1.899-2.47 2.084-4.13 4.481-5.127 7.339-.971 2.784-1.269 5.793-1.086 8.703.254 4.051 1.324 8.239 2.415 12.185a184.76 184.76 0 0 0 2.395 7.766 189.472 189.472 0 0 0 9.251 22.76 200.254 200.254 0 0 0 3.512 6.914c.928 1.732 2 3.475 2.712 5.278.164.415.273.789.211 1.225-.097.673-.572 1.3-1.192 1.703-.519.336-1.157.556-1.816.473-.393.024-.761-.123-1.059-.341-1.747-1.273-3.204-5.778-4.152-7.697-1.437-2.91-2.949-5.789-4.339-8.717-5.762-12.141-11.683-26.833-12.878-39.823-.672-7.313.249-14.098 6.012-19.831a24.28 24.28 0 0 1 2.842-2.397c.548-.4 1.225-.766 1.691-1.235l.018-.018a1.345 1.345 0 0 1-.228-.203c-1.219-1.427-2.102-3.893-2.853-5.548-3.809-8.398-5.483-16.846-5.659-25.804-.093-4.766.189-9.427 1.922-13.975.225-.603.475-1.198.75-1.785a25.397 25.397 0 0 1 3.107-5.012c.294-.367 2.257-2.29 2.294-2.527-.264-.11-.575-.132-.862-.171l-.012-.105c.629-.524 1.576-.665 2.243-1.157l.024-.018c-.018-.008-.044-.018-.061-.03-.594-.404-1.152-1.671-1.478-2.284-3.032-5.704-5.096-12.029-6.127-18.214-1.523-9.146-.453-18.961 6.169-26.475C22.278 4.93 27.13 1.577 34.095.673c1.875-.244 3.756-.174 5.62-.385Zm5.056.187c.877.353 1.51.756 1.855 1.562.242.565.37 1.329.056 1.888-.234.418-.694.673-1.196.813-1.576.439-5.14.283-7.025.427-6.823.521-11.005 2.511-15.46 6.916-1.271 1.257-2.624 2.689-3.501 4.175-3.227 5.465-3.26 14.62-2.166 20.657a46.08 46.08 0 0 0 1.006 4.195c.402 1.387.87 2.758 1.403 4.113 1.15 2.986 2.448 5.957 4.138 8.755l.039-.014c.495-.186.957-.535 1.427-.773a39.364 39.364 0 0 1 3.432-1.516c.798-.301 1.686-.501 2.522-.718 5.425-1.411 11.214-1.483 16.58.253 5.135 1.662 9.495 4.384 11.84 8.739.565 1.051.996 2.056 1.238 3.194.081.378.244 1.938.454 2.119l2.363-64.084L44.771.475Zm-4.803 53.787c-.908.331-2.604.25-3.666.372-3.625.415-6.369 1.591-9.45 3.167a.575.575 0 0 1-.331.087c.388.691.944 1.324 1.448 1.956 3.213 4.033 9.834 9.801 15.214 11.493.18.057.396.096.586.062.667.706 3.443 1.063 4.466 1.162 1.966.189 4.197.034 5.789-1.061 1.428-.982 1.822-2.657 1.994-4.151.35-3.044-.799-5.92-3.054-8.3-2.776-2.929-6.449-4.14-10.713-4.536-.557-.052-1.842.004-2.283-.251Zm-2.028 56.359c-.63.339-3.097.583-3.968.788-1.529.36-2.931.802-4.351 1.401-.785.332-2.856 1.452-3.613 1.454.36.583.991 1.1 1.5 1.594 2.011 1.947 4.484 4.234 7.447 5.051.179.05.361.068.541.015.739.583 2.786.596 3.76.563 2.346-.077 4.806-.903 6.397-2.406a4.241 4.241 0 0 0 1.328-3.379c-.082-1.314-.854-2.541-1.988-3.42-1.788-1.388-3.748-1.444-6.001-1.535-.327-.013-.762.017-1.052-.126Z" style="fill: rgb(255, 207, 40); fill-opacity: 1;" class="fills"/></g></svg>