<svg width="144.833" xmlns="http://www.w3.org/2000/svg" height="133.092" viewBox="-14.047 -21.546 144.833 133.092" fill="none"><g style="fill: rgb(0, 0, 0);"><path d="M18.007 1.325c1.426.484 1.068 4.819-.972 4.496-.374-.21-.765-.357-.779-.873-.052-1.885-.244-3.631 1.751-3.623Z" style="fill: rgb(255, 207, 40); fill-opacity: 1;" class="fills"/><g class="strokes"><path d="M18.007 1.325c1.426.484 1.068 4.819-.972 4.496-.374-.21-.765-.357-.779-.873-.052-1.885-.244-3.631 1.751-3.623Z" style="fill: none; stroke-width: 1; stroke: rgb(255, 207, 40); stroke-opacity: 1;" class="stroke-shape"/></g><path d="M47.148 25.233c1.55.85.981 4.203.25 5.536-.41.29-.716.377-1.19.358-1.155-.68-.735-1.811-.667-3.053.04-.747-.03-1.492.181-2.227.444-.553.738-.747 1.426-.614Z" style="fill: rgb(255, 207, 40); fill-opacity: 1;" class="fills"/><g class="strokes"><path d="M47.148 25.233c1.55.85.981 4.203.25 5.536-.41.29-.716.377-1.19.358-1.155-.68-.735-1.811-.667-3.053.04-.747-.03-1.492.181-2.227.444-.553.738-.747 1.426-.614Z" style="fill: none; stroke-width: 1; stroke: rgb(255, 207, 40); stroke-opacity: 1;" class="stroke-shape"/></g><path d="M117.59 49.275c.81.344 1.319 1.661.334 2.256-.563.34-3.708.92-4.321.778-.972-.253-1.021-1.55-.204-2.183.636-.492 3.441-.965 4.191-.851Z" style="fill: rgb(255, 207, 40); fill-opacity: 1;" class="fills"/><g class="strokes"><path d="M117.59 49.275c.81.344 1.319 1.661.334 2.256-.563.34-3.708.92-4.321.778-.972-.253-1.021-1.55-.204-2.183.636-.492 3.441-.965 4.191-.851Z" style="fill: none; stroke-width: 1; stroke: rgb(255, 207, 40); stroke-opacity: 1;" class="stroke-shape"/></g><path d="M82.258 41.204c2.691 1.225-.869 2.65-1.738 3.162-1.01.594-2.1 1.698-3.265 1.835-.801-.34-.93-.717-.769-1.628 1.185-1.481 4.036-3.464 5.772-3.369Z" style="fill: rgb(255, 207, 40); fill-opacity: 1;" class="fills"/><g class="strokes"><path d="M82.258 41.204c2.691 1.225-.869 2.65-1.738 3.162-1.01.594-2.1 1.698-3.265 1.835-.801-.34-.93-.717-.769-1.628 1.185-1.481 4.036-3.464 5.772-3.369Z" style="fill: none; stroke-width: 1; stroke: rgb(255, 207, 40); stroke-opacity: 1;" class="stroke-shape"/></g><path d="M25.771 11.502c3.886 1.825-1.79 7.707-4.026 5.656-1.884-2.315-1.006-7.827 4.026-5.656Zm-1.396 2.172a5.711 5.711 0 0 0-.994-.133c.008.325.023.65.018.976l.042.151c.285-.035.736-.619.947-.851l-.013-.143Z" style="fill: rgb(255, 207, 40); fill-opacity: 1;" class="fills"/><g class="strokes"><path d="M25.771 11.502c3.886 1.825-1.79 7.707-4.026 5.656-1.884-2.315-1.006-7.827 4.026-5.656Zm-1.396 2.172a5.711 5.711 0 0 0-.994-.133c.008.325.023.65.018.976l.042.151c.285-.035.736-.619.947-.851l-.013-.143Z" style="fill: none; stroke-width: 1; stroke: rgb(255, 207, 40); stroke-opacity: 1;" class="stroke-shape"/></g><path d="M103.534 49.458c4.252 1.636 1.122 6.594-1.068 6.686-.661.028-1.087-.367-1.516-.812-.491-1.045-2.002-2.869-1.813-4.028.341-2.087 2.931-2.038 4.397-1.846Zm-.445 2.674c-.489-.141-1.005-.222-1.486-.378.228.249.591.569.71.892.133.196.216.424.172.676.317-.173 1.251-.977.604-1.19Z" style="fill: rgb(255, 207, 40); fill-opacity: 1;" class="fills"/><g class="strokes"><path d="M103.534 49.458c4.252 1.636 1.122 6.594-1.068 6.686-.661.028-1.087-.367-1.516-.812-.491-1.045-2.002-2.869-1.813-4.028.341-2.087 2.931-2.038 4.397-1.846Zm-.445 2.674c-.489-.141-1.005-.222-1.486-.378.228.249.591.569.71.892.133.196.216.424.172.676.317-.173 1.251-.977.604-1.19Z" style="fill: none; stroke-width: 1; stroke: rgb(255, 207, 40); stroke-opacity: 1;" class="stroke-shape"/></g><path d="M74.739 14.171c1.329.701 2.199 4.082 1.801 5.596-.485.589-3.501 1.885-4.51 2.281-1.737.159-2.478-3.403-2.142-4.7.459-1.773 3.198-3.568 4.851-3.177Zm-1.26 2.483c-.415.41-.867.781-1.276 1.193.037.417.11.751.273 1.125.183-.03.37-.053.55-.102.432-.129.839-.281 1.257-.462-.185-.617-.323-1.322-.804-1.754Z" style="fill: rgb(255, 207, 40); fill-opacity: 1;" class="fills"/><g class="strokes"><path d="M74.739 14.171c1.329.701 2.199 4.082 1.801 5.596-.485.589-3.501 1.885-4.51 2.281-1.737.159-2.478-3.403-2.142-4.7.459-1.773 3.198-3.568 4.851-3.177Zm-1.26 2.483c-.415.41-.867.781-1.276 1.193.037.417.11.751.273 1.125.183-.03.37-.053.55-.102.432-.129.839-.281 1.257-.462-.185-.617-.323-1.322-.804-1.754Z" style="fill: none; stroke-width: 1; stroke: rgb(255, 207, 40); stroke-opacity: 1;" class="stroke-shape"/></g><path d="M68.405 25.329c1.332.879.508 2.118.213 3.493-1.301 6.075-2.529 25.098 1.403 28.999 1.947 1.933 5.833.501 8.191-.029 4.355-.979 8.698-2.029 13.078-2.831 1.275-.233 4.776-1.622 4.604.857-.064.918-1.185 1.347-1.853 1.739-7.342 4.313-16.161 12.956-20.404 20.275-.299.516-.72 1.669-1.085 2.026 1.171 2.06-1.903 1.979-2.659 2.049-5.572.519-8.407-.855-13.361-2.828l-10.596-4.177c-1.973-.782-3.934-1.692-5.959-2.331-.72-.574-3.042-1.361-3.986-1.752-4.899-2.033-12.064-4.875-13.64-10.543-.47-1.69-.447-3.51.403-5.147.286-.21.59-.395.887-.587l.961-16.606c.207-3.535.361-7.123.168-10.637-.069-1.259-.438-4.575-.182-5.656.233-.982 1.178-1.429 1.928-.768 3.172 2.792 10.3 17.647 12.758 22.055 1.773 3.178 2.597 4.157 6.176 2.492 5.818-2.705 16.357-12.344 20.566-18.142.69-.95 1.081-2.278 2.389-1.951Zm-2.9 6.341Zc-.592.555-1.069 1.143-1.564 1.687-4.576 5.035-15.882 15.724-21.674 15.577-3.663-.094-5.852-5.887-7.364-8.74-1.364-2.575-6-11.964-7.901-13.751.708 2.538-.037 12.311-.216 15.193l-.548 7.742c-.166 2.641.725 6.317-1.613 7.352-1.325 7.291 9.469 9.825 14.122 12.397 1.538.458 3.04 1.217 4.539 1.796 3.502 1.353 7.015 2.698 10.484 4.128 4.386 1.807 10.743 5.092 15.705 4.39.255-.036.558-.03.775-.204.311-.298.964-1.901 1.217-2.373 3.535-6.595 8.935-12.043 14.633-16.655.561-.454 2.626-1.776 2.849-2.322-.41.223-1.858.432-2.428.571l-7.803 1.85c-4.551 1.057-9.532 2.694-11.865-2.54-2.398-5.377-2.221-18.444-1.304-25.163.042-.307.171-.705-.044-.935Z" style="fill: rgb(255, 207, 40); fill-opacity: 1;" class="fills"/><g class="strokes"><path d="M68.405 25.329c1.332.879.508 2.118.213 3.493-1.301 6.075-2.529 25.098 1.403 28.999 1.947 1.933 5.833.501 8.191-.029 4.355-.979 8.698-2.029 13.078-2.831 1.275-.233 4.776-1.622 4.604.857-.064.918-1.185 1.347-1.853 1.739-7.342 4.313-16.161 12.956-20.404 20.275-.299.516-.72 1.669-1.085 2.026 1.171 2.06-1.903 1.979-2.659 2.049-5.572.519-8.407-.855-13.361-2.828l-10.596-4.177c-1.973-.782-3.934-1.692-5.959-2.331-.72-.574-3.042-1.361-3.986-1.752-4.899-2.033-12.064-4.875-13.64-10.543-.47-1.69-.447-3.51.403-5.147.286-.21.59-.395.887-.587l.961-16.606c.207-3.535.361-7.123.168-10.637-.069-1.259-.438-4.575-.182-5.656.233-.982 1.178-1.429 1.928-.768 3.172 2.792 10.3 17.647 12.758 22.055 1.773 3.178 2.597 4.157 6.176 2.492 5.818-2.705 16.357-12.344 20.566-18.142.69-.95 1.081-2.278 2.389-1.951Zm-2.9 6.341Zc-.592.555-1.069 1.143-1.564 1.687-4.576 5.035-15.882 15.724-21.674 15.577-3.663-.094-5.852-5.887-7.364-8.74-1.364-2.575-6-11.964-7.901-13.751.708 2.538-.037 12.311-.216 15.193l-.548 7.742c-.166 2.641.725 6.317-1.613 7.352-1.325 7.291 9.469 9.825 14.122 12.397 1.538.458 3.04 1.217 4.539 1.796 3.502 1.353 7.015 2.698 10.484 4.128 4.386 1.807 10.743 5.092 15.705 4.39.255-.036.558-.03.775-.204.311-.298.964-1.901 1.217-2.373 3.535-6.595 8.935-12.043 14.633-16.655.561-.454 2.626-1.776 2.849-2.322-.41.223-1.858.432-2.428.571l-7.803 1.85c-4.551 1.057-9.532 2.694-11.865-2.54-2.398-5.377-2.221-18.444-1.304-25.163.042-.307.171-.705-.044-.935Z" style="fill: none; stroke-width: 1; stroke: rgb(255, 207, 40); stroke-opacity: 1;" class="stroke-shape"/></g><path d="M57.617 64.358c1.672.725 10.261 5.721 11.217 7.306.372.617-.016 1.507-.619 1.858-.851.497-1.8-.539-2.417-1.01-6.735-5.134-16.016-9.114-24.105-11.256-2.525-.583-5.075-1.048-7.691-1.151-.55-.022-4.795 1.029-3.535-1.473.732-1.452 4.53-1.089 5.797-.988 6.176.492 15.884 3.819 21.353 6.714Z" style="fill: rgb(255, 207, 40); fill-opacity: 1;" class="fills"/><g class="strokes"><path d="M57.617 64.358c1.672.725 10.261 5.721 11.217 7.306.372.617-.016 1.507-.619 1.858-.851.497-1.8-.539-2.417-1.01-6.735-5.134-16.016-9.114-24.105-11.256-2.525-.583-5.075-1.048-7.691-1.151-.55-.022-4.795 1.029-3.535-1.473.732-1.452 4.53-1.089 5.797-.988 6.176.492 15.884 3.819 21.353 6.714Z" style="fill: none; stroke-width: 1; stroke: rgb(255, 207, 40); stroke-opacity: 1;" class="stroke-shape"/></g></g></svg>