<svg width="108" xmlns="http://www.w3.org/2000/svg"  style="fill: rgb(61, 44, 252)" height="72" fill="none"><g ><path d="M70.386 25.036c2.456 0 4.93-.067 7.383 0 .069.181 0 4.824-.001 5.428l.001 11.74c0 .51.121 4.473 0 4.747-2.46.032-4.923.002-7.383 0-.001-3.782.072-7.58 0-11.36-2.218 1.672-5.711 5.53-7.709 7.569-.759-.602-1.439-1.402-2.119-2.092-.842-.855-4.764-5.105-5.599-5.582l-.019.105c-.058 1.253-.001 2.531-.001 3.788l.001 7.572h-7.544l-.001-14.631c.001-2.426.055-4.86.001-7.284h7.544c2.393 2.482 5.408 5.142 7.568 7.735.515-.438.969-.986 1.45-1.464l3.881-3.819c.823-.817 1.634-1.737 2.547-2.452Z" style=" fill-opacity: 1;" class="fills"/><path d="M91.898 13.424Zl.055.167.063-.014-.002.027-.069.034c-.128 1.539-.047 3.137-.047 4.683l.011 34.654c.014 3.743-2.704 7.235-6.441 7.896-1.587.28-3.349.144-4.958.142H42.727l-.164-.016c-.086-.245.777-.951.971-1.178 1.526-1.789 2.463-3.731 2.981-6.019h37.973c.07-.153-.001-7.83-.001-8.587l.001-19.656c0-.665.076-4.787 0-5.018.327-.182.915-.895 1.225-1.196l3.543-3.455c.828-.82 1.663-1.841 2.642-2.464ZM84.555 10.973c.677.01-.882 1.153-1.021 1.284-.813.77-5.548 5.616-6.148 5.94-1.224.089-2.636.003-3.882.002l-32.871-.002.003 28.314c0 1.298.081 2.652-.088 3.939-1.696 12.963-20.785 14.215-23.965 1.096-.437-2.295-.282-4.709-.28-7.036l4.754-.001c.869-.002 1.744-.035 2.612.001l-.005 2.724c-.001 1.845.003 3.471 1.402 4.89 1.826 1.85 4.883 1.92 6.725.061 1.739-1.754 1.445-3.698 1.438-5.925l-.004-25.876c-.003-4.127.563-8.449 5.739-9.3 1.493-.245 3.329-.113 4.857-.113l40.734.002Z" style=" fill-opacity: 1;" class="fills"/></g></svg>