<svg width="50" xmlns="http://www.w3.org/2000/svg" height="50" fill="none"><g style="fill: rgb(0, 0, 0);"><path d="M10.207,44.288C5.692,43.277,2.815,40.590,1.339,36.005C0.678,33.952,0.462,32.357,0.463,29.547C0.464,27.343,0.546,26.594,0.960,25.035C2.466,19.360,7.342,13.159,13.704,8.828C15.690,7.477,18.966,5.670,19.432,5.670C19.563,5.670,20.203,6.520,20.853,7.559L22.035,9.449L20.133,10.550C12.657,14.878,9.102,19.336,8.243,25.460L8.116,26.364L11.412,26.467C13.544,26.534,15.112,26.682,15.850,26.886C19.472,27.888,21.724,30.129,22.417,33.422C23.223,37.254,21.755,40.752,18.443,42.893C16.684,44.030,15.171,44.425,12.682,44.398C11.536,44.386,10.423,44.336,10.207,44.288ZZM36.568,44.024C34.581,43.504,33.319,42.778,31.818,41.292C30.331,39.820,29.333,38.128,28.642,35.907C27.605,32.580,27.466,27.871,28.313,24.850C29.903,19.185,35.032,12.826,41.538,8.456C43.024,7.458,46.353,5.670,46.724,5.670C46.877,5.670,47.538,6.527,48.192,7.574L49.383,9.478L47.605,10.462C43.773,12.583,40.377,15.385,38.567,17.919C37.021,20.084,35.552,23.893,35.552,25.740L35.552,26.361L38.830,26.473C43.478,26.632,45.330,27.221,47.432,29.210C50.039,31.675,50.726,36.159,48.995,39.414C47.843,41.581,45.750,43.313,43.409,44.036C41.736,44.554,38.567,44.548,36.568,44.024ZZ" style="stroke-width: 4.00819; fill: rgb(255, 207, 40); fill-opacity: 1;" class="fills"/></g></svg>