<svg width="90" xmlns="http://www.w3.org/2000/svg" height="90" fill="none"><g style="fill: rgb(0, 0, 0);"><path d="M55.186 11.377c10.894-.518 23.771 3.348 30.002 12.791 6.345 9.616 2.365 20.442-6.712 26.43.56 2.693 1.027 4.441 3.094 6.564.438.449 1.068.738 1.444 1.207.767.957-.058 2.39-1.555 2.136-4.013-.681-7.752-3.001-10.123-6.302-1.218.502-6.386 1.754-7.418 1.224-.554-.285-.856-1.236-.542-1.781.47-.816 1.967-.739 2.762-.831 2.112-.247 4.121-.958 6.157-1.53.473.225.683.759.966 1.174 1.259 1.843 2.897 3.103 4.791 4.267-.355-.434-.604-.888-.858-1.384-.554-1.183-1.917-4.594-1.284-5.844.273-.539 1.18-.983 1.686-1.318 5.739-3.792 9.339-10.714 7.721-17.611-1.19-5.072-5.205-9.119-9.518-11.767-11.553-7.09-30.634-6.821-40.658 2.981-.4.391-.979 1.178-1.561 1.296-.724.147-1.498-.275-1.608-1.04-.201-1.396 3.019-3.573 3.981-4.26 6.283-4.497 11.923-5.571 19.233-6.402Z" style="fill: rgb(251, 233, 170); fill-opacity: 1;" class="fills"/><g class="strokes"><path d="M55.186 11.377c10.894-.518 23.771 3.348 30.002 12.791 6.345 9.616 2.365 20.442-6.712 26.43.56 2.693 1.027 4.441 3.094 6.564.438.449 1.068.738 1.444 1.207.767.957-.058 2.39-1.555 2.136-4.013-.681-7.752-3.001-10.123-6.302-1.218.502-6.386 1.754-7.418 1.224-.554-.285-.856-1.236-.542-1.781.47-.816 1.967-.739 2.762-.831 2.112-.247 4.121-.958 6.157-1.53.473.225.683.759.966 1.174 1.259 1.843 2.897 3.103 4.791 4.267-.355-.434-.604-.888-.858-1.384-.554-1.183-1.917-4.594-1.284-5.844.273-.539 1.18-.983 1.686-1.318 5.739-3.792 9.339-10.714 7.721-17.611-1.19-5.072-5.205-9.119-9.518-11.767-11.553-7.09-30.634-6.821-40.658 2.981-.4.391-.979 1.178-1.561 1.296-.724.147-1.498-.275-1.608-1.04-.201-1.396 3.019-3.573 3.981-4.26 6.283-4.497 11.923-5.571 19.233-6.402Z" style="fill: none; stroke-width: 2; stroke: rgb(251, 233, 170); stroke-opacity: 1;" class="stroke-shape"/></g><path d="M30.765 26.214c10.359-.227 22.506 4.383 27.975 13.513 5.354 8.938 1.581 18.525-6.323 24.382-8.552 6.337-20.292 7.871-30.478 5.265-.959-.261-1.911-.561-2.864-.845-1.545 1.975-3.471 3.627-5.716 4.758-1.021.514-4.228 1.819-5.292 1.591-.819-.176-1.417-1.212-1.031-1.993.273-.551.912-.937 1.328-1.382 1.816-1.944 2.794-3.914 3.372-6.514-.587-.493-1.244-.928-1.852-1.397-12.403-9.571-10.227-24.328 2.741-32.283 5.465-3.352 11.748-4.975 18.14-5.095Zm-.744 2.566c-7.655.74-14.053 2.192-20.009 7.696-8.86 8.189-7.084 19.646 2.717 26.099.61.402 1.56.776 1.638 1.609.192 2.067-1.3 5.079-2.449 6.863 1.931-.984 3.37-1.988 4.773-3.671.85-1.02.927-2.04 2.476-1.546 2.392.763 4.164 1.131 6.532 1.716 6.899.797 12.518.625 19.13-2.098 11.225-4.622 18.729-15.921 10.194-26.549-5.817-7.243-15.927-10.41-25.002-10.119Z" style="fill: rgb(251, 233, 170); fill-opacity: 1;" class="fills"/><g class="strokes"><path d="M30.765 26.214c10.359-.227 22.506 4.383 27.975 13.513 5.354 8.938 1.581 18.525-6.323 24.382-8.552 6.337-20.292 7.871-30.478 5.265-.959-.261-1.911-.561-2.864-.845-1.545 1.975-3.471 3.627-5.716 4.758-1.021.514-4.228 1.819-5.292 1.591-.819-.176-1.417-1.212-1.031-1.993.273-.551.912-.937 1.328-1.382 1.816-1.944 2.794-3.914 3.372-6.514-.587-.493-1.244-.928-1.852-1.397-12.403-9.571-10.227-24.328 2.741-32.283 5.465-3.352 11.748-4.975 18.14-5.095Zm-.744 2.566c-7.655.74-14.053 2.192-20.009 7.696-8.86 8.189-7.084 19.646 2.717 26.099.61.402 1.56.776 1.638 1.609.192 2.067-1.3 5.079-2.449 6.863 1.931-.984 3.37-1.988 4.773-3.671.85-1.02.927-2.04 2.476-1.546 2.392.763 4.164 1.131 6.532 1.716 6.899.797 12.518.625 19.13-2.098 11.225-4.622 18.729-15.921 10.194-26.549-5.817-7.243-15.927-10.41-25.002-10.119Z" style="fill: none; stroke-width: 2; stroke: rgb(251, 233, 170); stroke-opacity: 1;" class="stroke-shape"/></g><path d="M19.481 47.066c.768.008 2.122-.117 2.765.29 1.129.713.593 2.124-.818 2.383-.764.004-2.066.12-2.709-.305-1.109-.733-.518-2.175.762-2.368Z" style="fill: rgb(251, 233, 170); fill-opacity: 1;" class="fills"/><g class="strokes"><path d="M19.481 47.066c.768.008 2.122-.117 2.765.29 1.129.713.593 2.124-.818 2.383-.764.004-2.066.12-2.709-.305-1.109-.733-.518-2.175.762-2.368Z" style="fill: none; stroke-width: 2; stroke: rgb(251, 233, 170); stroke-opacity: 1;" class="stroke-shape"/></g><path d="M41.417 47.066c.77-.033 2.292-.143 2.877.419.908.873.196 2.273-1.041 2.254-.777-.004-2.116.177-2.77-.256-1.117-.738-.522-2.208.934-2.417Z" style="fill: rgb(251, 233, 170); fill-opacity: 1;" class="fills"/><g class="strokes"><path d="M41.417 47.066c.77-.033 2.292-.143 2.877.419.908.873.196 2.273-1.041 2.254-.777-.004-2.116.177-2.77-.256-1.117-.738-.522-2.208.934-2.417Z" style="fill: none; stroke-width: 2; stroke: rgb(251, 233, 170); stroke-opacity: 1;" class="stroke-shape"/></g><path d="M29.771 47.066c.84-.003 2.261-.113 3.023.079 1.484.374 1.242 1.981.111 2.594-.57.052-2.553.055-3.067-.069-1.467-.351-1.349-1.969-.067-2.604Z" style="fill: rgb(251, 233, 170); fill-opacity: 1;" class="fills"/><g class="strokes"><path d="M29.771 47.066c.84-.003 2.261-.113 3.023.079 1.484.374 1.242 1.981.111 2.594-.57.052-2.553.055-3.067-.069-1.467-.351-1.349-1.969-.067-2.604Z" style="fill: none; stroke-width: 2; stroke: rgb(251, 233, 170); stroke-opacity: 1;" class="stroke-shape"/></g></g></svg>