<svg width="90" xmlns="http://www.w3.org/2000/svg" height="90.088" fill="none"><g style="fill: rgb(0, 0, 0);"><path d="M87.086 66.555c2.782-.013.731 8.197-1.369 8.889a1.085 1.085 0 0 1-1.187-.727c-.216-.649.434-1.294.742-1.813.641-1.081 1.014-2.304 1.033-3.56.016-1.072-.52-2.342.781-2.789Z" style="fill: rgb(251, 233, 170); fill-opacity: 1;" class="fills"/><g class="strokes"><path d="M87.086 66.555c2.782-.013.731 8.197-1.369 8.889a1.085 1.085 0 0 1-1.187-.727c-.216-.649.434-1.294.742-1.813.641-1.081 1.014-2.304 1.033-3.56.016-1.072-.52-2.342.781-2.789Z" style="fill: none; stroke-width: 1; stroke: rgb(251, 233, 170); stroke-opacity: 1;" class="stroke-shape"/></g><path d="M12.969 13.329c.886-.05 2.382.205 1.784 1.476-.575 1.22-4.484.055-5.998 4.025-.166.434-.277.906-.576 1.27a2.993 2.993 0 0 1-.75.354c-.382-.236-.658-.427-.831-.862-.263-3.143 3.565-5.809 6.371-6.263Z" style="fill: rgb(251, 233, 170); fill-opacity: 1;" class="fills"/><g class="strokes"><path d="M12.969 13.329c.886-.05 2.382.205 1.784 1.476-.575 1.22-4.484.055-5.998 4.025-.166.434-.277.906-.576 1.27a2.993 2.993 0 0 1-.75.354c-.382-.236-.658-.427-.831-.862-.263-3.143 3.565-5.809 6.371-6.263Z" style="fill: none; stroke-width: 1; stroke: rgb(251, 233, 170); stroke-opacity: 1;" class="stroke-shape"/></g><path d="M13.327 8.559c.829-.057 2.861.028 2.162 1.439-.407.82-1.25.6-1.985.623-4.734.15-8.965 3.924-9.636 8.634-.125.877.141 1.995-.284 2.796-.261.322-.539.363-.929.41-.615-.213-.914-.497-.948-1.198-.324-6.618 5.032-12.414 11.62-12.704Z" style="fill: rgb(251, 233, 170); fill-opacity: 1;" class="fills"/><g class="strokes"><path d="M13.327 8.559c.829-.057 2.861.028 2.162 1.439-.407.82-1.25.6-1.985.623-4.734.15-8.965 3.924-9.636 8.634-.125.877.141 1.995-.284 2.796-.261.322-.539.363-.929.41-.615-.213-.914-.497-.948-1.198-.324-6.618 5.032-12.414 11.62-12.704Z" style="fill: none; stroke-width: 1; stroke: rgb(251, 233, 170); stroke-opacity: 1;" class="stroke-shape"/></g><path d="M72.324 51.573c1.516-.183 3.003.915 3.53 2.296.584 1.531-.187 3.17-.824 4.573.956.539 1.358.83 2.022 1.698 1.737.204 2.727.516 3.557 2.26 2.326.617 4.013 1.963 3.438 4.72-.259 1.241-1.409 3.388-1.965 4.65l-1.541 3.54c-.236.538-.447 1.094-.71 1.62-2.093 4.181-7.317 5.467-11.36 3.449-1.886-1.007-2.74-2.235-3.753-3.997l-5.028-8.794c-.511-.885-1.145-1.804-1.535-2.749-1.111-2.691.982-5.506 3.856-5.151 2.301.283 2.533 1.925 3.659 3.334l.038.046c.503-1.103.912-2.261 1.339-3.396l1.171-3.049c.83-2.195 1.295-4.784 4.106-5.05Zm0 2.049c-1.386.42-1.595 2.112-2.041 3.297l-3.178 8.459c-.264.721-.298 1.3-1.116 1.503l-.057-.018c-1.176-.375-2.3-3.765-3.346-4.717-.97-.883-2.332-.32-2.709.842-.315.972.787 2.279 1.245 3.078l5.167 8.967c.57 1.008 1.01 1.845 1.879 2.644 2.806 2.352 6.831 2.149 9.21-.722.683-.824.996-1.79 1.419-2.76l1.706-3.938c.644-1.508 2.432-4.316.941-5.464-.809-.624-1.765.057-2.283-.313-.475-.34-.081-1.331-1.167-2.08-1.002-.254-1.935.383-2.277-.187-.367-.612-.405-1.459-1.22-1.691-.609-.174-1.52.329-1.915-.33-.697-1.162 3.645-6.699-.258-6.57Z" style="fill: rgb(251, 233, 170); fill-opacity: 1;" class="fills"/><g class="strokes"><path d="M72.324 51.573c1.516-.183 3.003.915 3.53 2.296.584 1.531-.187 3.17-.824 4.573.956.539 1.358.83 2.022 1.698 1.737.204 2.727.516 3.557 2.26 2.326.617 4.013 1.963 3.438 4.72-.259 1.241-1.409 3.388-1.965 4.65l-1.541 3.54c-.236.538-.447 1.094-.71 1.62-2.093 4.181-7.317 5.467-11.36 3.449-1.886-1.007-2.74-2.235-3.753-3.997l-5.028-8.794c-.511-.885-1.145-1.804-1.535-2.749-1.111-2.691.982-5.506 3.856-5.151 2.301.283 2.533 1.925 3.659 3.334l.038.046c.503-1.103.912-2.261 1.339-3.396l1.171-3.049c.83-2.195 1.295-4.784 4.106-5.05Zm0 2.049c-1.386.42-1.595 2.112-2.041 3.297l-3.178 8.459c-.264.721-.298 1.3-1.116 1.503l-.057-.018c-1.176-.375-2.3-3.765-3.346-4.717-.97-.883-2.332-.32-2.709.842-.315.972.787 2.279 1.245 3.078l5.167 8.967c.57 1.008 1.01 1.845 1.879 2.644 2.806 2.352 6.831 2.149 9.21-.722.683-.824.996-1.79 1.419-2.76l1.706-3.938c.644-1.508 2.432-4.316.941-5.464-.809-.624-1.765.057-2.283-.313-.475-.34-.081-1.331-1.167-2.08-1.002-.254-1.935.383-2.277-.187-.367-.612-.405-1.459-1.22-1.691-.609-.174-1.52.329-1.915-.33-.697-1.162 3.645-6.699-.258-6.57Z" style="fill: none; stroke-width: 1; stroke: rgb(251, 233, 170); stroke-opacity: 1;" class="stroke-shape"/></g><path d="M52.98 16.451c16.007-.942 26.615 18.155 16.091 31.308-3.755 4.693-8.151 6.444-13.887 6.834l-13.221.991c-2.085.152-4.18.269-6.258.5-1.045 5.053-1.196 9.163.038 14.195.253 1.036.698 2.014.947 3.045l.019.078c-.66 2.676-6.031-1.163-7.165-1.976l-.736-.58c-4.994-4.014-6.847-8.54-7.53-14.762-.939-.355-1.945-.512-2.904-.802-7.372-2.227-13.048-8.853-13.776-16.577-.759-8.051 3.998-16.375 11.766-19.09 2.857-.999 5.189-1.048 8.16-1.226l22.169-1.508c2.094-.149 4.197-.238 6.287-.43Zm.586 2.045c-1.989.06-3.985.244-5.971.372l-22.158 1.505c-2.13.139-4.85.171-6.863.725-7.389 2.035-12.236 8.788-11.968 16.458.267 7.612 6.009 14.337 13.384 16.064.747.174 2.307.328 2.866.619.774.402.545 2.654.669 3.547.572 4.131 2.522 7.562 5.458 10.456 1.46 1.424 3.143 2.497 4.969 3.392-1.312-4.795-1.559-9.756-.552-14.639.583-2.825.232-2.87 3.159-3.066l18.208-1.373c1.056-.082 2.138-.116 3.184-.287 9.498-1.548 15.084-11.691 12.723-20.777-1.959-7.542-9.239-13.288-17.108-12.996Z" style="fill: rgb(251, 233, 170); fill-opacity: 1;" class="fills"/><g class="strokes"><path d="M52.98 16.451c16.007-.942 26.615 18.155 16.091 31.308-3.755 4.693-8.151 6.444-13.887 6.834l-13.221.991c-2.085.152-4.18.269-6.258.5-1.045 5.053-1.196 9.163.038 14.195.253 1.036.698 2.014.947 3.045l.019.078c-.66 2.676-6.031-1.163-7.165-1.976l-.736-.58c-4.994-4.014-6.847-8.54-7.53-14.762-.939-.355-1.945-.512-2.904-.802-7.372-2.227-13.048-8.853-13.776-16.577-.759-8.051 3.998-16.375 11.766-19.09 2.857-.999 5.189-1.048 8.16-1.226l22.169-1.508c2.094-.149 4.197-.238 6.287-.43Zm.586 2.045c-1.989.06-3.985.244-5.971.372l-22.158 1.505c-2.13.139-4.85.171-6.863.725-7.389 2.035-12.236 8.788-11.968 16.458.267 7.612 6.009 14.337 13.384 16.064.747.174 2.307.328 2.866.619.774.402.545 2.654.669 3.547.572 4.131 2.522 7.562 5.458 10.456 1.46 1.424 3.143 2.497 4.969 3.392-1.312-4.795-1.559-9.756-.552-14.639.583-2.825.232-2.87 3.159-3.066l18.208-1.373c1.056-.082 2.138-.116 3.184-.287 9.498-1.548 15.084-11.691 12.723-20.777-1.959-7.542-9.239-13.288-17.108-12.996Z" style="fill: none; stroke-width: 1; stroke: rgb(251, 233, 170); stroke-opacity: 1;" class="stroke-shape"/></g><path d="M42.217 30.051c.761-.153 1.081.167 1.242.895-.055.596-.153.865-.74 1.135-.581.027-.926-.063-1.342-.519-.059-.816-.044-1.319.84-1.511Z" style="fill: rgb(251, 233, 170); fill-opacity: 1;" class="fills"/><g class="strokes"><path d="M42.217 30.051c.761-.153 1.081.167 1.242.895-.055.596-.153.865-.74 1.135-.581.027-.926-.063-1.342-.519-.059-.816-.044-1.319.84-1.511Z" style="fill: none; stroke-width: 1; stroke: rgb(251, 233, 170); stroke-opacity: 1;" class="stroke-shape"/></g><path d="M50.193 41.93c1.614-.098 1.944 1.659.698 2.12-1.425.392-1.972-1.501-.698-2.12Z" style="fill: rgb(251, 233, 170); fill-opacity: 1;" class="fills"/><g class="strokes"><path d="M50.193 41.93c1.614-.098 1.944 1.659.698 2.12-1.425.392-1.972-1.501-.698-2.12Z" style="fill: none; stroke-width: 1; stroke: rgb(251, 233, 170); stroke-opacity: 1;" class="stroke-shape"/></g><path d="M42.217 34.005c.527-.026.889.07 1.14.585.159.325.152 7.321.079 8.289-.035.471-.264.845-.717 1.025-.479.067-1.067-.125-1.254-.611-.161-.421-.121-7.422-.071-8.349.031-.575.295-.747.823-.939Z" style="fill: rgb(251, 233, 170); fill-opacity: 1;" class="fills"/><g class="strokes"><path d="M42.217 34.005c.527-.026.889.07 1.14.585.159.325.152 7.321.079 8.289-.035.471-.264.845-.717 1.025-.479.067-1.067-.125-1.254-.611-.161-.421-.121-7.422-.071-8.349.031-.575.295-.747.823-.939Z" style="fill: none; stroke-width: 1; stroke: rgb(251, 233, 170); stroke-opacity: 1;" class="stroke-shape"/></g><path d="M55.204 25.605c2.309.036.449 3.589.072 4.912l-1.959 6.775c-.301 1.023-.424 2.804-1.467 3.117-2.179.262-.735-2.81-.49-3.666l1.744-6.016c.318-1.094 1.005-4.841 2.1-5.122Z" style="fill: rgb(251, 233, 170); fill-opacity: 1;" class="fills"/><g class="strokes"><path d="M55.204 25.605c2.309.036.449 3.589.072 4.912l-1.959 6.775c-.301 1.023-.424 2.804-1.467 3.117-2.179.262-.735-2.81-.49-3.666l1.744-6.016c.318-1.094 1.005-4.841 2.1-5.122Z" style="fill: none; stroke-width: 1; stroke: rgb(251, 233, 170); stroke-opacity: 1;" class="stroke-shape"/></g><path d="M26.295 30.051c.201-.009.404.059.596.112.766.751.498 4.296.47 5.491.741.053 1.513.003 2.258.002l4.649-.002c.033-1.335-.369-4.696.579-5.491 1.925-.729 1.48 2.662 1.48 3.623l.001 7.357c0 1.038.333 2.732-1.179 2.761-1.203-.239-.885-1.869-.885-2.77l.004-3.464a294.496 294.496 0 0 0-6.907 0v5.332c-.431.902-1.708 1.03-1.98-.084-.116-.472-.033-3.208-.033-3.9v-4.954c0-1.249-.479-3.692.947-4.013Z" style="fill: rgb(251, 233, 170); fill-opacity: 1;" class="fills"/><g class="strokes"><path d="M26.295 30.051c.201-.009.404.059.596.112.766.751.498 4.296.47 5.491.741.053 1.513.003 2.258.002l4.649-.002c.033-1.335-.369-4.696.579-5.491 1.925-.729 1.48 2.662 1.48 3.623l.001 7.357c0 1.038.333 2.732-1.179 2.761-1.203-.239-.885-1.869-.885-2.77l.004-3.464a294.496 294.496 0 0 0-6.907 0v5.332c-.431.902-1.708 1.03-1.98-.084-.116-.472-.033-3.208-.033-3.9v-4.954c0-1.249-.479-3.692.947-4.013Z" style="fill: none; stroke-width: 1; stroke: rgb(251, 233, 170); stroke-opacity: 1;" class="stroke-shape"/></g></g></svg>