<svg width="90" xmlns="http://www.w3.org/2000/svg" height="90" fill="none"><g style="fill: rgb(0, 0, 0);"><path d="M52.051 24.411c1.443-.043 2.132.752 2.466 2.095-.324 1.376-.882 2.702-1.366 4.029L41.907 61.026c-.561 1.567-.758 4.106-2.649 4.561-1.942.096-2.677-1.432-2.199-3.087 1.397-4.848 3.781-10.444 5.549-15.219l6.814-18.599c.657-1.788.601-3.604 2.629-4.271ZM60.711 29.323c1.524-.079 5.718 4.143 6.933 5.152 1.432 1.19 10.145 8.173 10.717 9.166 1.529 2.656-6.161 7.625-8.077 9.277-1.997 1.723-6.453 5.949-8.601 7.196-2.414 1.863-4.402-1.36-2.848-2.898.794-.786 1.758-1.429 2.611-2.154l8.964-7.757c.951-.837 1.895-1.716 2.939-2.436-.966-1.061-2.169-1.994-3.257-2.931l-6.707-5.746c-1.449-1.223-5.359-3.477-4.158-5.772.339-.646.824-.892 1.484-1.097ZM30.911 29.006c1.363.041 2.523 1.484 2.16 2.821-.325 1.199-3.389 3.411-4.349 4.232l-8.293 7.202c-.732.628-1.465 1.334-2.291 1.829 1.899 1.719 13.92 11.454 14.704 12.959.842 1.614-.848 3.391-2.49 2.844-.829-.454-1.498-1.121-2.207-1.736l-11.149-9.645c-1.434-1.237-3.634-2.493-4.128-4.422.557-2.392 9.158-8.522 11.938-11.163 1.116-1.061 4.907-4.634 6.105-4.921Z" style="fill: rgb(255, 207, 40); fill-opacity: 1;" class="fills"/></g></svg>